<?xml version="1.0" standalone="no"?>
<!DOCTYPE svg PUBLIC "-//W3C//DTD SVG 20010904//EN" "http://www.w3.org/TR/2001/REC-SVG-20010904/DTD/svg10.dtd">
<!-- Created using Krita: https://krita.org -->
<svg xmlns="http://www.w3.org/2000/svg" 
    xmlns:xlink="http://www.w3.org/1999/xlink"
    xmlns:krita="http://krita.org/namespaces/svg/krita"
    xmlns:sodipodi="http://sodipodi.sourceforge.net/DTD/sodipodi-0.dtd"
    width="460.8pt"
    height="460.8pt"
    viewBox="0 0 460.8 460.8">
<defs/>
<path id="shape0" transform="matrix(0.72 0 0 0.72 51.12 69.12)" fill="#ffffff" stroke-opacity="0" stroke="#000000" stroke-width="0" stroke-linecap="square" stroke-linejoin="bevel" d="M64.9 2.8C43.2 15.7 0.4 64.8 0 77.7L0 99C0 126.1 25.3 149.8 48.2 149.8C75.8 149.8 98.7 127 98.7 99.8C98.7 126.9 120.9 149.8 148.5 149.8C176.1 149.8 197.5 127 197.5 99.8C197.5 126.9 221.1 149.8 248.7 149.8L249.2 149.8C276.8 149.8 300.4 127 300.4 99.8C300.4 126.9 321.9 149.8 349.4 149.8C376.9 149.8 399.2 127 399.2 99.8C399.2 126.9 422.2 149.8 449.7 149.8C472.7 149.8 498 126 498 99L498 77.7C497.6 64.8 454.8 15.6 433.1 2.7C365.7 0.4 318.9 0 249.1 0C179.3 0 84.1 1.1 64.9 2.8ZM197.2 137.2C175.2 175.6 119.3 175.9 97.4 137.4C84.2 160.5 54.2 169.5 41.4 165.1C37.5 205.3 27.7 402.2 59.1 434.3C139.1 453 361.2 452.4 438.9 434.3C470.5 402 460.2 202.3 456.6 165.1C443.7 169.5 413.7 160.5 400.6 137.4C378.6 175.9 322.8 175.5 300.8 137.2C293.7 149.7 277.8 166.1 249 166.1C238.6 166.4 228.2 163.9 219.1 158.8C210 153.7 202.4 146.2 197.2 137.2ZM155.6 191C172.1 191 186.7 191 204.8 210.8C234.1 207.8 263.7 207.8 293 210.8C311.2 191.1 325.8 191.1 342.2 191.1C394.5 191.1 407.4 268.6 426.1 335.5C443.4 397.7 420.6 399.2 392.1 399.2C350 397.6 326.6 367 326.6 336.4C287.3 342.8 224.7 345.2 171 336.4C171 367 147.7 397.6 105.5 399.2C77.1 399.1 54.3 397.6 71.6 335.5C90.3 268.5 103.2 191.1 155.5 191.1L155.5 191ZM249 238.8C249 238.8 204.6 279.6 196.6 294L225.6 292.8L225.6 318.1C225.6 319.6 246.9 318.3 248.9 318.3C260.5 318.8 272.2 319.3 272.2 318.1L272.2 292.8L301.2 294C293.2 279.5 248.8 238.8 248.8 238.8L248.9 238.8Z" sodipodi:nodetypes="cccccccccccccccccccccccccccccccccccccccccccccccccccccc"/>
</svg>
