<?xml version="1.0" standalone="no"?>
<!DOCTYPE svg PUBLIC "-//W3C//DTD SVG 20010904//EN" "http://www.w3.org/TR/2001/REC-SVG-20010904/DTD/svg10.dtd">
<!-- Created using Krita: https://krita.org -->
<svg xmlns="http://www.w3.org/2000/svg" 
    xmlns:xlink="http://www.w3.org/1999/xlink"
    xmlns:krita="http://krita.org/namespaces/svg/krita"
    xmlns:sodipodi="http://sodipodi.sourceforge.net/DTD/sodipodi-0.dtd"
    width="460.8pt"
    height="460.8pt"
    viewBox="0 0 460.8 460.8">
<defs/>
<path id="shape0" transform="matrix(0.72 0 0 0.72 69.12 69.12)" fill="#ffffff" stroke-opacity="0" stroke="#000000" stroke-width="0" stroke-linecap="square" stroke-linejoin="bevel" d="M64 0C28.7 0 0 28.7 0 64L0 384C0 419.3 28.7 448 64 448L384 448C419.3 448 448 419.3 448 384L448 64C448 28.7 419.3 0 384 0ZM69 170.2L135.5 170.2L135.5 384L69 384ZM140.7 102.5C140.7 123.8 123.5 141 102.2 141C80.9 141 63.7 123.8 63.7 102.5C63.7 81.2 80.9 64 102.2 64C123.5 64 140.7 81.2 140.7 102.5ZM317.9 384L317.9 280C317.9 255.2 317.4 223.3 283.4 223.3C248.8 223.3 243.5 250.3 243.5 278.2L243.5 384L177.1 384L177.1 170.2L240.8 170.2L240.8 199.4L241.7 199.4C250.6 182.6 272.3 164.9 304.6 164.9C371.8 164.9 384.3 209.2 384.3 266.8L384.3 384Z" sodipodi:nodetypes="ccccccccccccccccccccccccccccccccc"/>
</svg>
